<svg width="128" height="128" version="1.1" xmlns="http://www.w3.org/2000/svg"><g fill="none"><circle cx="64" cy="64" r="48" stroke="#000" stroke-linecap="round" stroke-linejoin="round" stroke-width="18"/><circle cx="64" cy="64" r="48" stroke="#fff" stroke-linecap="round" stroke-linejoin="round" stroke-width="16"/><g><path d="m64 8c-25.3 0-47.5 17.1-54.1 41.5l15.5 4.14c4.7-17.5 20.5-29.6 38.6-29.6 18.1 0 33.9 12.1 38.6 29.6l15.5-4.14c-6.55-24.4-28.8-41.5-54.1-41.5z" stop-color="#000000" stroke="#000" stroke-width="2"/><path d="m17.6 51.6a48 48 0 0 1 46.4-35.6 48 48 0 0 1 46.4 35.6" stroke="#e5ca17" stroke-linejoin="round" stroke-width="16"/><path d="m64 8c-9.67-2e-7 -19.3 2.5-28 7.5l8 13.9c12.4-7.15 27.6-7.15 40 0l8-13.9c-8.66-5-18.3-7.5-28-7.5z" stop-color="#000000" stroke="#000" stroke-width="2"/><path d="m40 22.4a48 48 0 0 1 48 1e-6" stroke="#5be517" stroke-linejoin="round" stroke-width="16"/></g></g></svg>
